<?xml version="1.0" standalone="no"?><!DOCTYPE svg PUBLIC "-//W3C//DTD SVG 1.1//EN" "http://www.w3.org/Graphics/SVG/1.1/DTD/svg11.dtd"><svg t="1584425492000" class="icon" viewBox="0 0 1024 1024" version="1.1" xmlns="http://www.w3.org/2000/svg" p-id="1240" xmlns:xlink="http://www.w3.org/1999/xlink" width="200" height="200"><defs><style type="text/css"></style></defs><path d="M795.64 761.9h-3.04V643.6c0-17.22-14-31.24-31.22-31.24H395.8c-17.22 0-31.22 14.02-31.22 31.24 0 16.78 13.32 30.48 29.94 31.16 0.22 0 0.42 0.06 0.64 0.06h271.02a11.24 11.24 0 0 1 11.22 11.22c0 6.16-5 11.18-11.14 11.22h-362.4a11.24 11.24 0 0 1-11.22-11.22l0.02-183.98h145.4l-16.46 69.14h-21.26c-5.52 0-10 4.48-10 10s4.48 10 10 10h223.32c5.52 0 10-4.48 10-10s-4.48-10-10-10H602.4l-16.48-69.16h192.88c0.2 0.02 0.38 0.02 0.56 0.02 0.34 0 0.66 0 0.98-0.02h0.52c21.86-0.8 39-18.6 39-40.5V69.22c0-21.72-17.66-39.38-39.38-39.38H243.52c-21.72 0-39.38 17.66-39.38 39.38v392.32c0 22.36 18.18 40.52 40.5 40.52h28.02l-0.02 183.98c0 17.22 14.02 31.22 31.22 31.22h364.7c1 0 1.96-0.2 2.9-0.48 14.7-2.52 25.94-15.32 25.94-30.74 0-17.22-14.02-31.22-31.22-31.22H395.8a11.24 11.24 0 0 1-11.22-11.22c0-6.2 5.04-11.24 11.22-11.24h365.58c6.18 0 11.22 5.04 11.22 11.24v118.34c-6.32 0.16-12.44 1.3-18.18 3.32v-22.4c0-5.52-4.48-10-10-10H193.56c-16.02 0-29.04 13.5-29.04 30.08v201.1c0 16.6 13.02 30.12 29.04 30.12h550.86c5.52 0 10-4.48 10-10v-22.42a59.72 59.72 0 0 0 19.68 3.36h21.54c35.2 0 63.84-30.84 63.84-68.72v-65.76c0-37.88-28.64-68.72-63.84-68.72zM442.16 571.2l16.46-69.14H512c0.06 0 0.12-0.02 0.2-0.02h53.16l16.48 69.16h-139.68z m-197.52-89.14c-11.3 0-20.5-9.2-20.5-20.52V69.22c0-10.68 8.7-19.38 19.38-19.38h536.96c10.68 0 19.38 8.7 19.38 19.38v392.32c0 11.04-8.58 20.02-19.58 20.5H512c-0.06 0-0.12 0.02-0.2 0.02H244.64z m489.78 492.1H193.56c-4.98 0-9.04-4.54-9.04-10.12V762.94c0-5.56 4.06-10.08 9.04-10.08h540.86v23.98c-14.7 12.6-24.16 32.02-24.16 53.78v65.76c0 21.76 9.46 41.18 24.16 53.78v24z m105.06-77.78c0 26.86-19.68 48.72-43.84 48.72h-21.54c-8.72 0-16.84-2.86-23.68-7.76-0.22-0.16-0.44-0.32-0.68-0.48-11.74-8.74-19.48-23.62-19.48-40.48v-65.76c0-16.86 7.74-31.74 19.48-40.48 0.24-0.16 0.46-0.32 0.68-0.48 6.84-4.9 14.96-7.76 23.68-7.76h21.54c24.16 0 43.84 21.86 43.84 48.72v65.76z" fill="#23130D" p-id="1241"></path><path d="M780.48 49.84H243.52c-10.68 0-19.38 8.7-19.38 19.38v392.32c0 11.32 9.2 20.52 20.5 20.52H511.8c0.08 0 0.14-0.02 0.2-0.02h268.28c11-0.48 19.58-9.46 19.58-20.5V69.22c0-10.68-8.7-19.38-19.38-19.38zM590.84 471.4h-157.68c-5.52 0-10-4.48-10-10 0-5.54 4.48-10 10-10h157.68c5.52 0 10 4.46 10 10 0 5.52-4.48 10-10 10z m198.96-39.24c0 5.52-4.48 10-10 10H244.2c-5.52 0-10-4.48-10-10V72.34c0-5.52 4.48-10 10-10h535.6c5.52 0 10 4.48 10 10v359.82zM581.84 571.2h-139.68l16.46-69.14H512c0.06 0 0.12-0.02 0.2-0.02h53.16l16.48 69.16z" fill="#E1E1E5" p-id="1242"></path><path d="M581.84 571.2h-6.32l-10.16-42.66H512.2c-0.08 0-0.14 0.02-0.2 0.02h-53.38l-10.16 42.64h-6.3l16.46-69.14H512c0.06 0 0.12-0.02 0.2-0.02h53.16l16.48 69.16z" opacity=".2" p-id="1243"></path><path d="M795.64 781.9h-21.54c-8.72 0-16.84 2.86-23.68 7.76-0.22 0.16-0.44 0.32-0.68 0.48-11.74 8.74-19.48 23.62-19.48 40.48v65.76c0 16.86 7.74 31.74 19.48 40.48 0.24 0.16 0.46 0.32 0.68 0.48 6.84 4.9 14.96 7.76 23.68 7.76h21.54c24.16 0 43.84-21.86 43.84-48.72v-65.76c0-26.86-19.68-48.72-43.84-48.72z m-0.78 61.66c0 5.52-4.46 10-10 10-5.52 0-10-4.48-10-10v-38.8c0-5.52 4.48-10 10-10 5.54 0 10 4.48 10 10v38.8z" fill="#E1E1E5" p-id="1244"></path><path d="M769.74 936.86c-11.74-8.74-19.48-23.62-19.48-40.48v-65.76c0-16.86 7.74-31.74 19.48-40.48 0.24-0.16 0.46-0.32 0.68-0.48 6.84-4.9 14.96-7.76 23.68-7.76h-20c-8.72 0-16.84 2.86-23.68 7.76-0.22 0.16-0.44 0.32-0.68 0.48-11.74 8.74-19.48 23.62-19.48 40.48v65.76c0 16.86 7.74 31.74 19.48 40.48 0.24 0.16 0.46 0.32 0.68 0.48 6.84 4.9 14.96 7.76 23.68 7.76h20c-8.72 0-16.84-2.86-23.68-7.76-0.22-0.16-0.44-0.32-0.68-0.48z" opacity=".2" p-id="1245"></path><path d="M734.42 776.84v-23.98H193.56c-4.98 0-9.04 4.52-9.04 10.08v201.1c0 5.58 4.06 10.12 9.04 10.12h540.86v-24c-14.7-12.6-24.16-32.02-24.16-53.78v-65.76c0-21.76 9.46-41.18 24.16-53.78z m-73-10.76h4.76c8.28 0 15 6.72 15 15 0 8.28-6.72 15-15 15h-4.76c-8.3 0-15-6.72-15-15 0-8.28 6.7-15 15-15z m19.76 94.28c0 8.28-6.72 15-15 15h-4.76c-8.3 0-15-6.72-15-15s6.7-15 15-15h4.76c8.28 0 15 6.72 15 15z m-36.3-54.32c8.28 0 15 6.72 15 15 0 8.3-6.72 15-15 15h-4.76c-8.28 0-15-6.7-15-15 0-8.28 6.72-15 15-15h4.76z m-9.74 54.32c0 8.28-6.72 15-15 15h-4.76c-8.28 0-15-6.72-15-15s6.72-15 15-15h4.76c8.28 0 15 6.72 15 15z m-19.76-94.28h4.76c8.28 0 15 6.72 15 15 0 8.28-6.72 15-15 15h-4.76c-8.28 0-15-6.72-15-15 0-8.28 6.72-15 15-15z m-16.54 39.96c8.3 0 15 6.72 15 15 0 8.3-6.7 15-15 15h-4.76c-8.28 0-15-6.7-15-15 0-8.28 6.72-15 15-15h4.76z m-188.9 79.28h4.76c8.28 0 15 6.72 15 15 0 8.28-6.72 15-15 15h-4.76c-8.28 0-15-6.72-15-15 0-8.28 6.72-15 15-15z m-19.98-9.96h-4.76c-8.3 0-15-6.72-15-15s6.7-15 15-15h4.76c8.28 0 15 6.72 15 15s-6.72 15-15 15z m26.26-15c0-8.28 6.72-15 15-15H436c8.28 0 15 6.72 15 15s-6.72 15-15 15h-4.78c-8.28 0-15-6.72-15-15z m39.76 24.96h4.76c8.28 0 15 6.72 15 15 0 8.28-6.72 15-15 15h-4.76c-8.3 0-15-6.72-15-15 0-8.28 6.7-15 15-15z m6.28-24.96c0-8.28 6.72-15 15-15h4.76c8.3 0 15 6.72 15 15s-6.7 15-15 15h-4.76c-8.28 0-15-6.72-15-15zM502 885.32h4.78c8.28 0 15 6.72 15 15 0 8.28-6.72 15-15 15H502c-8.28 0-15-6.72-15-15 0-8.28 6.72-15 15-15z m6.3-24.96c0-8.28 6.72-15 15-15h4.76c8.3 0 15 6.72 15 15s-6.7 15-15 15h-4.76c-8.28 0-15-6.72-15-15z m39.74 24.96h4.76c8.3 0 15 6.72 15 15 0 8.28-6.7 15-15 15h-4.76c-8.28 0-15-6.72-15-15 0-8.28 6.72-15 15-15z m6.3-24.96c0-8.28 6.72-15 15-15h4.76c8.3 0 15 6.72 15 15s-6.7 15-15 15h-4.76c-8.28 0-15-6.72-15-15z m15-94.28h4.76c8.3 0 15 6.72 15 15 0 8.28-6.7 15-15 15h-4.76c-8.28 0-15-6.72-15-15 0-8.28 6.72-15 15-15z m-16.54 39.96c8.3 0 15 6.72 15 15 0 8.3-6.7 15-15 15h-4.76c-8.28 0-15-6.7-15-15 0-8.28 6.72-15 15-15h4.76z m-29.5-39.96h4.76c8.3 0 15 6.72 15 15 0 8.28-6.7 15-15 15h-4.76c-8.28 0-15-6.72-15-15 0-8.28 6.72-15 15-15z m-16.52 39.96c8.28 0 15 6.72 15 15 0 8.3-6.72 15-15 15H502c-8.28 0-15-6.7-15-15 0-8.28 6.72-15 15-15h4.78z m-29.52-39.96h4.76c8.3 0 15 6.72 15 15 0 8.28-6.7 15-15 15h-4.76c-8.28 0-15-6.72-15-15 0-8.28 6.72-15 15-15z m-16.52 39.96c8.28 0 15 6.72 15 15 0 8.3-6.72 15-15 15h-4.76a14.98 14.98 0 0 1-15-15c0-8.28 6.7-15 15-15h4.76z m-29.52-39.96H436c8.28 0 15 6.72 15 15 0 8.28-6.72 15-15 15h-4.78c-8.28 0-15-6.72-15-15 0-8.28 6.72-15 15-15z m-16.52 39.96c8.28 0 15 6.72 15 15 0 8.3-6.72 15-15 15h-4.76c-8.28 0-15-6.7-15-15 0-8.28 6.72-15 15-15h4.76z m-29.5-39.96h4.76c8.28 0 15 6.72 15 15 0 8.28-6.72 15-15 15h-4.76c-8.3 0-15-6.72-15-15 0-8.28 6.7-15 15-15z m-16.54 39.96c8.28 0 15 6.72 15 15 0 8.3-6.72 15-15 15h-4.76c-8.28 0-15-6.7-15-15 0-8.28 6.72-15 15-15h4.76z m-9.74 54.32c0 8.28-6.72 15-15 15h-4.76c-8.3 0-15-6.72-15-15s6.7-15 15-15h4.76c8.28 0 15 6.72 15 15z m-19.76-94.28h4.76c8.28 0 15 6.72 15 15 0 8.28-6.72 15-15 15h-4.76c-8.3 0-15-6.72-15-15 0-8.28 6.7-15 15-15z m-16.54 39.96c8.28 0 15 6.72 15 15 0 8.3-6.72 15-15 15h-4.76c-8.28 0-15-6.7-15-15 0-8.28 6.72-15 15-15h4.76z m-9.74 54.32c0 8.28-6.72 15-15 15h-4.76c-8.28 0-15-6.72-15-15s6.72-15 15-15h4.76c8.28 0 15 6.72 15 15z m-19.76-94.28h4.76c8.28 0 15 6.72 15 15 0 8.28-6.72 15-15 15h-4.76c-8.28 0-15-6.72-15-15 0-8.28 6.72-15 15-15z m-16.54 39.96c8.3 0 15 6.72 15 15 0 8.3-6.7 15-15 15h-4.76c-8.28 0-15-6.7-15-15 0-8.28 6.72-15 15-15h4.76z m-9.74 54.32c0 8.28-6.72 15-15 15h-4.76c-8.28 0-15-6.72-15-15s6.72-15 15-15h4.76c8.28 0 15 6.72 15 15z m-19.76-94.28h4.76c8.28 0 15 6.72 15 15 0 8.28-6.72 15-15 15h-4.76c-8.28 0-15-6.72-15-15 0-8.28 6.72-15 15-15z m-21.3 39.96h4.76c8.3 0 15 6.72 15 15 0 8.3-6.7 15-15 15h-4.76c-8.28 0-15-6.7-15-15 0-8.28 6.72-15 15-15z m0 109.28c-8.28 0-15-6.72-15-15 0-8.28 6.72-15 15-15h4.76c8.3 0 15 6.72 15 15 0 8.28-6.7 15-15 15h-4.76z m26.06 42.42h-4.76c-8.28 0-15-6.7-15-15 0-8.28 6.72-15 15-15h4.76c8.28 0 15 6.72 15 15 0 8.3-6.72 15-15 15z m19.98-42.42c-8.28 0-15-6.72-15-15 0-8.28 6.72-15 15-15h4.76c8.3 0 15 6.72 15 15 0 8.28-6.7 15-15 15h-4.76z m26.06 42.42h-4.76c-8.28 0-15-6.7-15-15 0-8.28 6.72-15 15-15h4.76c8.28 0 15 6.72 15 15 0 8.3-6.72 15-15 15z m19.98-42.42c-8.28 0-15-6.72-15-15 0-8.28 6.72-15 15-15h4.76c8.28 0 15 6.72 15 15 0 8.28-6.72 15-15 15h-4.76z m26.06 42.42h-4.76a14.98 14.98 0 0 1-15-15c0-8.28 6.7-15 15-15h4.76c8.28 0 15 6.72 15 15 0 8.3-6.72 15-15 15z m19.98-42.42c-8.28 0-15-6.72-15-15 0-8.28 6.72-15 15-15h4.76c8.28 0 15 6.72 15 15 0 8.28-6.72 15-15 15h-4.76z m210.6 42.42H385.2a14.98 14.98 0 0 1-15-15c0-8.28 6.7-15 15-15h189.3c8.28 0 15 6.72 15 15 0 8.3-6.72 15-15 15z m19.58-42.42c-8.28 0-15-6.72-15-15 0-8.28 6.72-15 15-15h4.76c8.3 0 15 6.72 15 15 0 8.28-6.7 15-15 15h-4.76z m26.06 42.42h-4.76c-8.28 0-15-6.7-15-15 0-8.28 6.72-15 15-15h4.76c8.28 0 15 6.72 15 15 0 8.3-6.72 15-15 15z m19.98-42.42c-8.28 0-15-6.72-15-15 0-8.28 6.72-15 15-15h4.76c8.28 0 15 6.72 15 15 0 8.28-6.72 15-15 15h-4.76z m26.06 42.42h-4.76a14.98 14.98 0 0 1-15-15c0-8.28 6.7-15 15-15h4.76c8.28 0 15 6.72 15 15 0 8.3-6.72 15-15 15z m24.74-42.42h-4.76c-8.3 0-15-6.72-15-15 0-8.28 6.7-15 15-15h4.76c8.28 0 15 6.72 15 15 0 8.28-6.72 15-15 15z m0-79.28h-4.76a14.98 14.98 0 0 1-15-15c0-8.28 6.7-15 15-15h4.76c8.28 0 15 6.72 15 15 0 8.3-6.72 15-15 15z" fill="#E1E1E5" p-id="1246"></path><path d="M193.56 752.86c-4.98 0-9.04 4.52-9.04 10.08v201.1c0 5.58 4.06 10.12 9.04 10.12h2.76v-199.42c0-5.56 4.06-10.08 9.04-10.08h529.06v-11.8H193.56z" opacity=".2" p-id="1247"></path><path d="M794.86 804.76v38.8c0 5.52-4.46 10-10 10-5.52 0-10-4.48-10-10v-38.8c0-5.52 4.48-10 10-10 5.54 0 10 4.48 10 10zM266.84 781.08c0 8.28-6.72 15-15 15h-4.76c-8.28 0-15-6.72-15-15 0-8.28 6.72-15 15-15h4.76c8.28 0 15 6.72 15 15zM312.88 781.08c0 8.28-6.72 15-15 15h-4.76c-8.28 0-15-6.72-15-15 0-8.28 6.72-15 15-15h4.76c8.28 0 15 6.72 15 15zM358.92 781.08c0 8.28-6.72 15-15 15h-4.76c-8.3 0-15-6.72-15-15 0-8.28 6.7-15 15-15h4.76c8.28 0 15 6.72 15 15zM404.96 781.08c0 8.28-6.72 15-15 15h-4.76c-8.3 0-15-6.72-15-15 0-8.28 6.7-15 15-15h4.76c8.28 0 15 6.72 15 15zM451 781.08c0 8.28-6.72 15-15 15h-4.78c-8.28 0-15-6.72-15-15 0-8.28 6.72-15 15-15H436c8.28 0 15 6.72 15 15zM497.02 781.08c0 8.28-6.7 15-15 15h-4.76c-8.28 0-15-6.72-15-15 0-8.28 6.72-15 15-15h4.76c8.3 0 15 6.72 15 15zM543.06 781.08c0 8.28-6.7 15-15 15h-4.76c-8.28 0-15-6.72-15-15 0-8.28 6.72-15 15-15h4.76c8.3 0 15 6.72 15 15zM589.1 781.08c0 8.28-6.7 15-15 15h-4.76c-8.28 0-15-6.72-15-15 0-8.28 6.72-15 15-15h4.76c8.3 0 15 6.72 15 15zM635.14 781.08c0 8.28-6.72 15-15 15h-4.76c-8.28 0-15-6.72-15-15 0-8.28 6.72-15 15-15h4.76c8.28 0 15 6.72 15 15zM681.18 781.08c0 8.28-6.72 15-15 15h-4.76c-8.3 0-15-6.72-15-15 0-8.28 6.7-15 15-15h4.76c8.28 0 15 6.72 15 15zM245.54 821.04c0 8.3-6.7 15-15 15h-4.76c-8.28 0-15-6.7-15-15 0-8.28 6.72-15 15-15h4.76c8.3 0 15 6.72 15 15zM291.58 821.04c0 8.3-6.7 15-15 15h-4.76c-8.28 0-15-6.7-15-15 0-8.28 6.72-15 15-15h4.76c8.3 0 15 6.72 15 15zM337.62 821.04c0 8.3-6.72 15-15 15h-4.76c-8.28 0-15-6.7-15-15 0-8.28 6.72-15 15-15h4.76c8.28 0 15 6.72 15 15zM383.66 821.04c0 8.3-6.72 15-15 15h-4.76c-8.28 0-15-6.7-15-15 0-8.28 6.72-15 15-15h4.76c8.28 0 15 6.72 15 15zM429.7 821.04c0 8.3-6.72 15-15 15h-4.76c-8.28 0-15-6.7-15-15 0-8.28 6.72-15 15-15h4.76c8.28 0 15 6.72 15 15zM475.74 821.04c0 8.3-6.72 15-15 15h-4.76a14.98 14.98 0 0 1-15-15c0-8.28 6.7-15 15-15h4.76c8.28 0 15 6.72 15 15zM521.78 821.04c0 8.3-6.72 15-15 15H502c-8.28 0-15-6.7-15-15 0-8.28 6.72-15 15-15h4.78c8.28 0 15 6.72 15 15zM567.8 821.04c0 8.3-6.7 15-15 15h-4.76c-8.28 0-15-6.7-15-15 0-8.28 6.72-15 15-15h4.76c8.3 0 15 6.72 15 15zM613.84 821.04c0 8.3-6.7 15-15 15h-4.76c-8.28 0-15-6.7-15-15 0-8.28 6.72-15 15-15h4.76c8.3 0 15 6.72 15 15zM659.88 821.04c0 8.3-6.72 15-15 15h-4.76c-8.28 0-15-6.7-15-15 0-8.28 6.72-15 15-15h4.76c8.28 0 15 6.72 15 15zM705.92 821.04c0 8.3-6.72 15-15 15h-4.76a14.98 14.98 0 0 1-15-15c0-8.28 6.7-15 15-15h4.76c8.28 0 15 6.72 15 15zM266.84 860.36c0 8.28-6.72 15-15 15h-4.76c-8.28 0-15-6.72-15-15s6.72-15 15-15h4.76c8.28 0 15 6.72 15 15zM312.88 860.36c0 8.28-6.72 15-15 15h-4.76c-8.28 0-15-6.72-15-15s6.72-15 15-15h4.76c8.28 0 15 6.72 15 15zM358.92 860.36c0 8.28-6.72 15-15 15h-4.76c-8.3 0-15-6.72-15-15s6.7-15 15-15h4.76c8.28 0 15 6.72 15 15zM404.96 860.36c0 8.28-6.72 15-15 15h-4.76c-8.3 0-15-6.72-15-15s6.7-15 15-15h4.76c8.28 0 15 6.72 15 15zM451 860.36c0 8.28-6.72 15-15 15h-4.78c-8.28 0-15-6.72-15-15s6.72-15 15-15H436c8.28 0 15 6.72 15 15zM497.02 860.36c0 8.28-6.7 15-15 15h-4.76c-8.28 0-15-6.72-15-15s6.72-15 15-15h4.76c8.3 0 15 6.72 15 15zM543.06 860.36c0 8.28-6.7 15-15 15h-4.76c-8.28 0-15-6.72-15-15s6.72-15 15-15h4.76c8.3 0 15 6.72 15 15zM589.1 860.36c0 8.28-6.7 15-15 15h-4.76c-8.28 0-15-6.72-15-15s6.72-15 15-15h4.76c8.3 0 15 6.72 15 15zM635.14 860.36c0 8.28-6.72 15-15 15h-4.76c-8.28 0-15-6.72-15-15s6.72-15 15-15h4.76c8.28 0 15 6.72 15 15zM681.18 860.36c0 8.28-6.72 15-15 15h-4.76c-8.3 0-15-6.72-15-15s6.7-15 15-15h4.76c8.28 0 15 6.72 15 15zM266.84 942.74c0 8.3-6.72 15-15 15h-4.76c-8.28 0-15-6.7-15-15 0-8.28 6.72-15 15-15h4.76c8.28 0 15 6.72 15 15zM312.88 942.74c0 8.3-6.72 15-15 15h-4.76c-8.28 0-15-6.7-15-15 0-8.28 6.72-15 15-15h4.76c8.28 0 15 6.72 15 15zM358.92 942.74c0 8.3-6.72 15-15 15h-4.76a14.98 14.98 0 0 1-15-15c0-8.28 6.7-15 15-15h4.76c8.28 0 15 6.72 15 15zM589.5 942.74c0 8.3-6.72 15-15 15H385.2a14.98 14.98 0 0 1-15-15c0-8.28 6.7-15 15-15h189.3c8.28 0 15 6.72 15 15zM635.14 942.74c0 8.3-6.72 15-15 15h-4.76c-8.28 0-15-6.7-15-15 0-8.28 6.72-15 15-15h4.76c8.28 0 15 6.72 15 15zM681.18 942.74c0 8.3-6.72 15-15 15h-4.76a14.98 14.98 0 0 1-15-15c0-8.28 6.7-15 15-15h4.76c8.28 0 15 6.72 15 15zM245.54 900.32c0 8.28-6.7 15-15 15h-4.76c-8.28 0-15-6.72-15-15 0-8.28 6.72-15 15-15h4.76c8.3 0 15 6.72 15 15zM291.58 900.32c0 8.28-6.7 15-15 15h-4.76c-8.28 0-15-6.72-15-15 0-8.28 6.72-15 15-15h4.76c8.3 0 15 6.72 15 15zM337.62 900.32c0 8.28-6.72 15-15 15h-4.76c-8.28 0-15-6.72-15-15 0-8.28 6.72-15 15-15h4.76c8.28 0 15 6.72 15 15zM383.66 900.32c0 8.28-6.72 15-15 15h-4.76c-8.28 0-15-6.72-15-15 0-8.28 6.72-15 15-15h4.76c8.28 0 15 6.72 15 15zM429.7 900.32c0 8.28-6.72 15-15 15h-4.76c-8.28 0-15-6.72-15-15 0-8.28 6.72-15 15-15h4.76c8.28 0 15 6.72 15 15zM475.74 900.32c0 8.28-6.72 15-15 15h-4.76c-8.3 0-15-6.72-15-15 0-8.28 6.7-15 15-15h4.76c8.28 0 15 6.72 15 15zM521.78 900.32c0 8.28-6.72 15-15 15H502c-8.28 0-15-6.72-15-15 0-8.28 6.72-15 15-15h4.78c8.28 0 15 6.72 15 15zM567.8 900.32c0 8.28-6.7 15-15 15h-4.76c-8.28 0-15-6.72-15-15 0-8.28 6.72-15 15-15h4.76c8.3 0 15 6.72 15 15zM613.84 900.32c0 8.28-6.7 15-15 15h-4.76c-8.28 0-15-6.72-15-15 0-8.28 6.72-15 15-15h4.76c8.3 0 15 6.72 15 15zM659.88 900.32c0 8.28-6.72 15-15 15h-4.76c-8.28 0-15-6.72-15-15 0-8.28 6.72-15 15-15h4.76c8.28 0 15 6.72 15 15zM705.92 900.32c0 8.28-6.72 15-15 15h-4.76c-8.3 0-15-6.72-15-15 0-8.28 6.7-15 15-15h4.76c8.28 0 15 6.72 15 15zM779.8 62.34H244.2c-5.52 0-10 4.48-10 10v359.82c0 5.52 4.48 10 10 10h535.6c5.52 0 10-4.48 10-10V72.34c0-5.52-4.48-10-10-10z m-10 359.82H254.2V82.34h515.6v339.82z" fill="#23130D" p-id="1248"></path><path d="M501.72 359.4H465.6l15.94 15.94h36.12l-15.94-15.94z m0 0H465.6l15.94 15.94h36.12l-15.94-15.94z m0 0H465.6l15.94 15.94h36.12l-15.94-15.94zM254.2 82.34v339.82h515.6V82.34H254.2z m89.74 313h-50.92c-5.52 0-10-4.48-10-10s4.48-10 10-10h50.92c5.52 0 10 4.48 10 10s-4.48 10-10 10z m37.76 0.92c0 5.54-4.48 10-10 10s-10-4.46-10-10V374.4c0-5.52 4.48-10 10-10s10 4.48 10 10v21.86z m193.88-0.92h-172.64a10.004 10.004 0 0 1-8.86-14.64 10.028 10.028 0 0 1 8.86-5.36h172.64c5.54 0 10 4.48 10 10s-4.46 10-10 10zM293.02 359.4c-5.52 0-10-4.48-10-10V118.32c0-5.52 4.48-10 10-10H575.6c5.52 0 10 4.48 10 10V349.4c0 5.52-4.48 10-10 10H293.02z m381.08-10c0 5.52-4.46 10-10 10h-55.02c-5.54 0-10-4.48-10-10v-55.04c0-5.52 4.46-10 10-10h55.02c5.54 0 10 4.48 10 10v55.04z m0-88.02c0 1.76-0.46 3.42-1.24 4.84a10.006 10.006 0 0 1-8.76 5.16h-55.02c-5.54 0-10-4.48-10-10v-55.04c0-3.76 2.08-7.04 5.14-8.76 1.44-0.78 3.1-1.24 4.86-1.24h55.02c5.54 0 10 4.48 10 10v55.04z m0-88.02c0 5.52-4.46 10-10 10h-55.02c-5.54 0-10-4.48-10-10V118.32c0-5.52 4.46-10 10-10h55.02c5.54 0 10 4.48 10 10v55.04z m72.28 158.52h-53.52c-5.52 0-10-4.48-10-10s4.48-10 10-10h53.52c5.52 0 10 4.48 10 10s-4.48 10-10 10z m0-88.02h-53.52c-5.52 0-10-4.48-10-10s4.48-10 10-10h53.52c5.52 0 10 4.48 10 10s-4.48 10-10 10z m0-88.02h-53.52c-5.52 0-10-4.48-10-10s4.48-10 10-10h53.52c5.52 0 10 4.48 10 10s-4.48 10-10 10zM501.72 359.4H465.6l15.94 15.94h36.12l-15.94-15.94z m0 0H465.6l15.94 15.94h36.12l-15.94-15.94z m0 0H465.6l15.94 15.94h36.12l-15.94-15.94z m0 0H465.6l15.94 15.94h36.12l-15.94-15.94z" fill="#3594BF" p-id="1249"></path><path d="M600.84 461.4c0 5.52-4.48 10-10 10h-157.68c-5.52 0-10-4.48-10-10 0-5.54 4.48-10 10-10h157.68c5.52 0 10 4.46 10 10zM575.6 108.32H293.02c-5.52 0-10 4.48-10 10V349.4c0 5.52 4.48 10 10 10H575.6c5.52 0 10-4.48 10-10V118.32c0-5.52-4.48-10-10-10z m-10 231.08H303.02V128.32H565.6V339.4z" fill="#23130D" p-id="1250"></path><path d="M303.02 128.32V339.4H565.6V128.32H303.02z m180.96 114.2l-89.36 51.6c-1.54 0.9-3.28 1.34-5 1.34s-3.46-0.44-5-1.34a9.97 9.97 0 0 1-5-8.66v-103.2c0-3.56 1.9-6.86 5-8.66 3.1-1.78 6.9-1.78 10 0l89.36 51.6c3.1 1.8 5 5.1 5 8.66 0 3.58-1.9 6.88-5 8.66z" fill="#EC7063" p-id="1251"></path><path d="M303.02 128.32V339.4h10V138.32H565.6v-10H303.02z" fill="#FFFFFF" opacity=".4" p-id="1252"></path><path d="M555.6 128.32V329.4H303.02v10H565.6V128.32h-10z" opacity=".2" p-id="1253"></path><path d="M585.58 385.34c0 5.52-4.46 10-10 10h-172.64c-5.52 0-10-4.48-10-10s4.48-10 10-10h172.64c5.54 0 10 4.48 10 10zM353.94 385.34c0 5.52-4.48 10-10 10h-50.92c-5.52 0-10-4.48-10-10s4.48-10 10-10h50.92c5.52 0 10 4.48 10 10zM483.98 225.2l-89.36-51.6a10.03 10.03 0 0 0-10 0 10.02 10.02 0 0 0-5 8.66v103.2c0 3.58 1.9 6.88 5 8.66 1.54 0.9 3.28 1.34 5 1.34s3.46-0.44 5-1.34l89.36-51.6c3.1-1.78 5-5.08 5-8.66 0-3.56-1.9-6.86-5-8.66z m-84.36 42.94V199.58l59.36 34.28-59.36 34.28z" fill="#23130D" p-id="1254"></path><path d="M458.98 233.86l-59.36 34.28V199.58z" fill="#E1E1E5" p-id="1255"></path><path d="M458.98 233.86l-59.36 34.28v-14l47.24-27.28z" opacity=".2" p-id="1256"></path><path d="M381.7 374.4v21.86c0 5.54-4.48 10-10 10s-10-4.46-10-10V374.4c0-5.52 4.48-10 10-10s10 4.48 10 10zM664.1 108.32h-55.02c-5.54 0-10 4.48-10 10v55.04c0 5.52 4.46 10 10 10h55.02c5.54 0 10-4.48 10-10V118.32c0-5.52-4.46-10-10-10z m-10 55.04h-35.02V128.32h35.02v35.04z" fill="#23130D" p-id="1257"></path><path d="M619.08 128.32h35.02v35.04h-35.02z" fill="#E1E1E5" p-id="1258"></path><path d="M654.1 128.32v7.7h-27.32v27.34h-7.7V128.32z" opacity=".2" p-id="1259"></path><path d="M664.1 196.34h-55.02c-5.54 0-10 4.48-10 10v55.04c0 5.52 4.46 10 10 10h55.02c5.54 0 10-4.48 10-10v-55.04c0-5.52-4.46-10-10-10z m-10 55.04h-35.02v-35.04h35.02v35.04z" fill="#23130D" p-id="1260"></path><path d="M619.08 216.34h35.02v35.04h-35.02z" fill="#E1E1E5" p-id="1261"></path><path d="M664.1 284.36h-55.02c-5.54 0-10 4.48-10 10v55.04c0 5.52 4.46 10 10 10h55.02c5.54 0 10-4.48 10-10v-55.04c0-5.52-4.46-10-10-10z m-10 55.04h-35.02v-35.04h35.02v35.04z" fill="#23130D" p-id="1262"></path><path d="M619.08 304.36h35.02v35.04h-35.02z" fill="#E1E1E5" p-id="1263"></path><path d="M756.38 145.84c0 5.52-4.48 10-10 10h-53.52c-5.52 0-10-4.48-10-10s4.48-10 10-10h53.52c5.52 0 10 4.48 10 10zM756.38 233.86c0 5.52-4.48 10-10 10h-53.52c-5.52 0-10-4.48-10-10s4.48-10 10-10h53.52c5.52 0 10 4.48 10 10zM756.38 321.88c0 5.52-4.48 10-10 10h-53.52c-5.52 0-10-4.48-10-10s4.48-10 10-10h53.52c5.52 0 10 4.48 10 10z" fill="#23130D" p-id="1264"></path><path d="M654.1 216.34v7.7h-27.32v27.34h-7.7v-35.04zM654.1 304.36v7.7h-27.32v27.34h-7.7v-35.04z" opacity=".2" p-id="1265"></path><path d="M254.2 147.98l28.82 28.82v92.84l-28.82-28.82zM481.54 375.34h-78.6c-3.84 0-7.18 2.18-8.86 5.36L372.8 359.4h92.8l15.94 15.94zM528.36 422.16h-92.8l-26.82-26.82h92.8zM296 82.34l25.98 25.98h-28.96c-5.52 0-10 4.48-10 10v22.4L254.2 111.9V82.34H296zM635.84 422.16h-71.36l-26.82-26.82h37.92c5.54 0 10-4.48 10-10s-4.46-10-10-10h-57.92l-15.94-15.94h71.36l62.76 62.76zM488.96 82.34l25.98 25.98h-118.6l-25.98-25.98zM769.8 363.16v59h-59.64L647.4 359.4h16.7c5.54 0 10-4.48 10-10v-55.04c0-5.52-4.46-10-10-10h-55.02c-5.54 0-10 4.48-10 10v16.72l-13.48-13.48V178.96l18.62 18.62c-3.06 1.72-5.14 5-5.14 8.76v55.04c0 5.52 4.46 10 10 10h55.02c3.78 0 7.04-2.08 8.76-5.16l45.66 45.66h-25.66c-5.52 0-10 4.48-10 10s4.48 10 10 10h45.66l31.28 31.28z" fill="#FFFFFF" opacity=".4" p-id="1266"></path></svg>